<?xml version="1.0" standalone="no"?>
<!DOCTYPE svg PUBLIC "-//W3C//DTD SVG 20010904//EN"
 "http://www.w3.org/TR/2001/REC-SVG-20010904/DTD/svg10.dtd">
<svg version="1.0" xmlns="http://www.w3.org/2000/svg"
 width="584.000000pt" height="584.000000pt" viewBox="0 0 584.000000 584.000000"
 preserveAspectRatio="xMidYMid meet">
<metadata>
Created by potrace 1.14, written by Peter Selinger 2001-2017
</metadata>
<g transform="translate(0.000000,584.000000) scale(0.100000,-0.100000)"
fill="#000000" stroke="none">
<path d="M993 5626 l-28 -24 0 -1034 0 -1033 623 -3 623 -2 -33 -27 c-18 -15
-37 -33 -41 -40 -6 -10 -131 -13 -590 -13 l-582 0 -430 -655 c-460 -699 -462
-703 -405 -732 20 -10 185 -12 778 -10 413 1 751 -1 750 -5 -2 -4 -106 -57
-233 -118 -376 -181 -598 -315 -667 -401 -37 -46 -53 -145 -44 -284 7 -124 24
-187 78 -294 96 -192 378 -422 738 -606 141 -72 261 -115 390 -141 76 -15 124
-16 455 -9 204 5 579 10 835 11 482 2 587 9 700 49 104 37 200 120 219 192 26
96 -22 177 -257 432 -147 159 -205 235 -240 311 -86 191 55 419 457 738 l153
122 702 0 c545 0 707 3 726 13 57 29 55 33 -405 732 l-430 655 -923 0 c-669 0
-921 3 -916 11 3 6 34 24 68 40 l61 29 852 0 853 0 5 23 c3 12 4 478 3 1035
l-3 1014 -28 24 -28 24 -1879 0 -1879 0 -28 -24z"/>
</g>
</svg>
