<?xml version="1.0" standalone="no"?>
<!DOCTYPE svg PUBLIC "-//W3C//DTD SVG 20010904//EN"
 "http://www.w3.org/TR/2001/REC-SVG-20010904/DTD/svg10.dtd">
<svg version="1.0" xmlns="http://www.w3.org/2000/svg"
 width="584.000000pt" height="584.000000pt" viewBox="0 0 584.000000 584.000000"
 preserveAspectRatio="xMidYMid meet">
<metadata>
Created by potrace 1.14, written by Peter Selinger 2001-2017
</metadata>
<g transform="translate(0.000000,584.000000) scale(0.100000,-0.100000)"
fill="#000000" stroke="none">
<path d="M985 5624 c-19 -21 -23 -36 -24 -90 0 -36 -3 -69 -6 -74 -3 -6 -1
-10 5 -10 6 0 9 -4 5 -9 -3 -6 -5 -41 -5 -78 0 -197 0 -284 -3 -341 -1 -34 0
-62 3 -62 4 0 4 -35 0 -135 -1 -11 -1 -38 -1 -60 0 -22 0 -49 0 -60 0 -138 -1
-212 0 -222 2 -75 2 -104 -3 -111 -2 -4 -1 -14 3 -21 5 -7 5 -30 1 -52 -4 -22
-4 -41 0 -44 4 -2 4 -25 0 -50 -4 -25 -4 -45 -1 -45 3 0 5 -28 3 -62 -3 -65
-2 -125 1 -168 2 -14 0 -44 -4 -68 -3 -23 -3 -44 0 -47 4 -2 4 -31 1 -64 -3
-34 -3 -61 0 -61 3 0 3 -26 0 -57 -3 -32 -3 -84 0 -117 l5 -58 -70 -107 c-38
-58 -144 -219 -235 -356 -91 -138 -170 -260 -177 -272 -6 -12 -16 -28 -23 -35
-6 -7 -43 -62 -83 -123 -39 -60 -74 -112 -79 -113 -4 -2 -6 -8 -2 -13 3 -5 0
-9 -5 -9 -6 0 -11 -7 -11 -15 0 -8 -4 -15 -10 -15 -5 0 -10 -6 -10 -14 0 -8
-3 -16 -7 -18 -5 -1 -33 -41 -63 -88 -30 -47 -58 -86 -62 -88 -5 -2 -8 -9 -8
-16 0 -7 -8 -21 -17 -32 -10 -10 -24 -31 -32 -46 -8 -15 -23 -37 -33 -48 -10
-11 -15 -20 -11 -20 4 0 2 -5 -5 -12 -18 -18 -15 -45 8 -68 20 -20 34 -20 633
-21 581 0 610 -1 577 -17 -19 -9 -38 -21 -41 -25 -3 -5 -10 -8 -15 -7 -10 1
-177 -83 -259 -131 -27 -16 -59 -33 -70 -38 -66 -31 -235 -161 -235 -181 0 -5
-5 -10 -10 -10 -25 0 -41 -94 -41 -232 -1 -251 94 -433 327 -628 53 -45 153
-120 159 -120 4 0 13 -6 20 -13 13 -12 115 -76 225 -140 30 -18 71 -39 90 -46
19 -8 43 -21 54 -30 10 -9 19 -14 20 -12 0 2 19 -4 41 -14 69 -29 181 -64 252
-80 56 -12 135 -14 458 -10 215 3 608 7 875 9 267 2 495 6 506 9 12 3 39 8 60
11 157 25 290 106 330 203 17 39 10 113 -16 162 -35 69 -112 162 -285 345 -27
29 -61 67 -75 85 -14 18 -35 44 -47 59 -34 40 -82 142 -91 192 -8 41 -2 89 15
130 3 8 7 17 8 20 10 41 94 169 150 229 70 76 125 131 130 131 2 0 17 12 33
27 15 16 43 39 61 53 17 14 44 35 59 47 l27 23 898 0 897 0 21 21 c13 13 19
30 17 43 -4 17 -258 418 -278 436 -7 7 -28 41 -37 60 -4 8 -14 22 -22 32 -9
10 -25 33 -36 51 -21 34 -57 90 -75 117 -16 23 -174 264 -319 485 -72 110
-135 205 -139 211 -29 34 -59 134 -41 134 5 0 5 10 0 23 -5 12 -5 30 -2 41 4
10 4 39 1 65 -3 25 -3 58 0 71 4 14 3 37 -1 53 -5 16 -4 27 2 27 6 0 5 8 -1
20 -6 11 -7 20 -3 20 4 0 7 21 6 47 -5 124 -5 164 0 169 3 3 1 19 -3 35 -5 18
-5 29 1 29 6 0 5 8 -1 20 -7 13 -7 20 -1 20 7 0 7 8 2 23 -5 12 -5 30 -2 41 4
10 4 39 1 65 -3 25 -3 58 0 71 4 14 3 37 -1 53 -5 16 -4 27 2 27 6 0 5 8 -1
20 -6 11 -7 20 -3 20 4 0 7 21 6 47 -5 124 -5 164 0 169 3 3 1 19 -3 35 -5 18
-5 29 1 29 6 0 5 8 -1 20 -7 13 -7 20 -1 20 7 0 7 8 2 23 -5 12 -5 30 -2 41 4
10 4 39 1 65 -3 25 -3 58 0 71 4 14 3 37 -1 53 -5 16 -4 27 2 27 6 0 5 8 -1
20 -6 11 -7 20 -3 20 4 0 7 21 6 47 -5 124 -5 164 0 169 3 3 1 19 -3 35 -6 19
-5 29 2 29 7 0 6 5 -1 14 -8 9 -8 16 -2 20 6 4 6 18 1 35 -4 15 -4 34 0 40 12
21 -8 102 -31 122 -21 18 -79 19 -1911 19 l-1889 0 -24 -26z"/>
</g>
</svg>
