<?xml version="1.0" encoding="UTF-8"?>
<svg width="54" height="44px" viewBox="0 0 292 273" version="1.1" xmlns="http://www.w3.org/2000/svg" xmlns:xlink="http://www.w3.org/1999/xlink">
    <title>Logo</title>
    <g id="Page-1" stroke="none" stroke-width="1" fill="none" fill-rule="evenodd">
        <path d="M52,0 L238,0 C240.209139,-4.05812251e-16 242,1.790861 242,4 L242,110 L242,110 L48,110 L48,4 C48,1.790861 49.790861,4.05812251e-16 52,0 Z" id="Rectangle" fill="#A3A3A3"></path>
        <path d="M48,110 L5.05409355,175.352466 C4.14418583,176.737109 4.52903415,178.597209 5.91367633,179.507116 C6.4029894,179.828665 6.97570099,180 7.56120999,180 L282.43879,180 C284.095644,180 285.43879,178.656854 285.43879,177 C285.43879,176.414491 285.267455,175.841779 284.945906,175.352466 L242,110 L242,110" id="Path" fill="#A3A3A3"></path>
        <rect id="Rectangle" fill="#D4D4D4" x="48" y="106" width="194" height="4"></rect>
        <path d="M139.892621,72.0986738 C168.270763,73.4538683 187.023822,76.6153823 196.151798,81.5832157 C211.69474,90.0423464 104.936326,93.8492841 104.936326,114.426076 C104.936326,124.521619 131.478565,135.687422 134.050849,147.666635 C137.407249,163.297495 38.522715,194.324319 36.4788469,209.49635 C33.6887782,230.207573 39.4343164,242.982147 68.0905019,260.261191 C96.7466874,277.540236 107.331613,272.657814 139.892621,271.852563 C172.453628,271.047312 196.090318,275.367286 205.081387,262.561543 C214.072455,249.7558 175.612206,230.821249 180.252092,214.369628 C188.322597,185.754079 241.453079,172.454923 227.535388,147.666635 C217.45033,129.704508 145.748258,119.603543 148.584972,110.348235 C151.421685,101.092927 233.331144,94.0579625 205.081387,79.1681584 C196.094281,74.4312598 174.364693,72.074765 139.892621,72.0986738 Z" id="Path-3" stroke="#979797" fill="#06B6D4"></path>
    </g>
</svg>