<?xml version="1.0" encoding="UTF-8"?>
<svg width="54px" height="44px" viewBox="0 0 292 273" version="1.1" xmlns="http://www.w3.org/2000/svg" xmlns:xlink="http://www.w3.org/1999/xlink">
    <title>Logo</title>
    <g id="Page-1" stroke="none" stroke-width="1" fill="none" fill-rule="evenodd">
        <path d="M52,0 L238,0 C240.209139,-4.05812251e-16 242,1.790861 242,4 L242,110 L242,110 L48,110 L48,4 C48,1.790861 49.790861,4.05812251e-16 52,0 Z" id="Rectangle" fill="#737373"></path>
        <path d="M48,110 L1.05845362,181.35115 C0.147819185,182.735315 0.531691021,184.595617 1.91585536,185.506251 C2.40544753,185.828351 2.97865968,186 3.56470487,186 L286.435295,186 C288.092149,186 289.435295,184.656854 289.435295,183 C289.435295,182.413955 289.263646,181.840743 288.941546,181.35115 L242,110 L242,110" id="Path" fill="#737373"></path>
        <line x1="48" y1="110" x2="242" y2="110" id="Path-4" stroke="#979797" stroke-width="2" fill="#000000"></line>
        <path d="M132.892621,72.0986738 C161.270763,73.4538683 180.023822,76.6153823 189.151798,81.5832157 C204.69474,90.0423464 97.936326,93.8492841 97.936326,114.426076 C97.936326,124.521619 124.478565,135.687422 127.050849,147.666635 C130.407249,163.297495 31.522715,194.324319 29.4788469,209.49635 C26.6887782,230.207573 32.4343164,242.982147 61.0905019,260.261191 C89.7466874,277.540236 100.331613,272.657814 132.892621,271.852563 C165.453628,271.047312 189.090318,275.367286 198.081387,262.561543 C207.072455,249.7558 168.612206,230.821249 173.252092,214.369628 C181.322597,185.754079 234.453079,172.454923 220.535388,147.666635 C210.45033,129.704508 138.748258,119.603543 141.584972,110.348235 C144.421685,101.092927 226.331144,94.0579625 198.081387,79.1681584 C189.094281,74.4312598 167.364693,72.074765 132.892621,72.0986738 Z" id="Path-3" stroke="#979797" fill="#06B6D4"></path>
    </g>
</svg>